<?xml version="1.0" standalone="no"?>
<!DOCTYPE svg PUBLIC "-//W3C//DTD SVG 20010904//EN"
 "http://www.w3.org/TR/2001/REC-SVG-20010904/DTD/svg10.dtd">
<svg version="1.0" xmlns="http://www.w3.org/2000/svg"
 width="128.000000pt" height="128.000000pt" viewBox="0 0 128.000000 128.000000"
 preserveAspectRatio="xMidYMid meet">
<metadata>
Created by potrace 1.11, written by Peter Selinger 2001-2013
</metadata>
<g transform="translate(0.000000,128.000000) scale(0.100000,-0.100000)"
fill="#000000" stroke="none">
<path d="M185 1185 c-34 -32 -43 -35 -95 -35 -37 0 -59 -4 -62 -12 -2 -7 -4
-123 -4 -258 l1 -245 33 -3 c17 -2 32 -7 32 -13 0 -5 5 -9 11 -9 5 0 7 5 4 10
-3 6 4 10 17 10 l23 0 0 -235 c0 -129 3 -248 8 -265 11 -41 66 -81 116 -83 23
-1 41 -5 41 -10 0 -4 6 -5 13 0 18 12 67 12 60 0 -4 -6 -1 -7 8 -1 20 12 39
14 39 3 0 -5 5 -9 11 -9 5 0 7 5 4 10 -8 13 17 8 28 -5 4 -6 11 -4 17 5 9 13
10 13 10 0 0 -10 3 -11 8 -4 8 13 42 14 42 2 0 -5 6 -6 13 -1 16 10 137 11
137 0 0 -4 9 -3 19 3 14 7 22 7 26 0 5 -8 11 -7 21 1 11 9 14 8 14 -2 0 -11 2
-11 10 1 9 13 10 13 10 0 0 -13 2 -13 9 -1 5 8 16 11 26 8 9 -4 13 -3 10 2 -3
5 -1 12 5 16 5 3 10 1 10 -4 0 -6 4 -11 10 -11 5 0 6 7 3 17 -4 11 -3 14 5 9
7 -4 12 -3 12 2 0 11 49 34 59 28 4 -3 13 0 21 6 12 8 11 9 -3 4 -11 -4 -17
-2 -15 5 2 6 6 9 9 7 3 -2 22 14 42 34 20 21 42 38 49 38 7 0 0 -11 -16 -23
-21 -17 -26 -26 -17 -31 7 -5 15 -5 18 -2 4 3 0 6 -7 6 -8 0 1 14 20 31 19 17
30 28 23 25 -21 -11 -20 9 2 29 12 11 32 21 46 21 20 0 24 4 24 30 0 31 48
100 63 90 5 -3 9 1 9 9 0 8 -4 12 -9 9 -4 -3 -5 2 -2 10 3 9 11 13 16 10 6 -4
9 -1 6 7 -3 8 1 28 7 44 7 17 10 36 7 44 -3 8 0 11 7 7 6 -4 11 -2 11 3 0 6
-4 11 -10 11 -14 0 -12 33 3 49 10 11 10 13 0 7 -7 -4 -13 -2 -13 3 0 6 6 11
13 11 9 0 9 2 0 8 -15 10 -14 74 1 65 6 -3 8 -3 4 2 -4 4 -2 15 5 24 11 14 10
14 -5 2 -16 -12 -18 -11 -18 6 0 10 6 25 13 32 10 11 9 13 0 7 -7 -4 -13 -3
-13 3 0 5 6 12 12 14 10 4 10 6 1 6 -7 1 -13 8 -13 17 0 11 6 14 18 10 15 -5
15 -5 1 6 -17 14 -25 123 -8 112 5 -3 9 0 9 5 0 6 -4 11 -10 11 -5 0 -10 11
-10 25 0 19 4 23 18 18 14 -5 14 -3 -3 10 -16 13 -17 17 -6 31 12 14 12 16 -4
10 -15 -6 -16 -4 -7 12 16 30 -8 118 -41 151 l-27 28 -474 3 -474 3 -37 -36z
m952 -909 c0 -8 -6 -12 -14 -9 -7 3 -10 9 -7 14 8 14 21 11 21 -5z"/>
<path d="M116 603 c-6 -14 -5 -15 5 -6 7 7 10 15 7 18 -3 3 -9 -2 -12 -12z"/>
<path d="M1236 442 c-3 -5 1 -9 9 -9 8 0 15 4 15 9 0 4 -4 8 -9 8 -6 0 -12 -4
-15 -8z"/>
<path d="M1235 399 c-4 -6 -5 -12 -2 -15 2 -3 7 2 10 11 7 17 1 20 -8 4z"/>
<path d="M1178 337 c-22 -17 -26 -25 -18 -37 9 -13 10 -13 8 1 -2 9 8 26 22
37 14 12 23 21 20 22 -3 0 -17 -10 -32 -23z"/>
<path d="M1086 217 c3 -10 9 -15 12 -12 3 3 0 11 -7 18 -10 9 -11 8 -5 -6z"/>
<path d="M990 129 c0 -5 5 -7 10 -4 6 3 10 8 10 11 0 2 -4 4 -10 4 -5 0 -10
-5 -10 -11z"/>
<path d="M902 70 c-9 -15 -9 -21 1 -26 6 -4 9 -4 5 1 -4 4 -3 14 4 22 6 7 9
15 7 18 -3 2 -10 -4 -17 -15z"/>
<path d="M930 79 c0 -5 5 -7 10 -4 6 3 10 8 10 11 0 2 -4 4 -10 4 -5 0 -10 -5
-10 -11z"/>
</g>
</svg>
